<svg width="21" height="21" viewBox="0 0 21 21" fill="none" xmlns="http://www.w3.org/2000/svg">
<g clip-path="url(#clip0_7_6)">
<path d="M7.15723 20.4586C2.99824 19.06 0 15.1307 0 10.5C0 4.70039 4.70039 0 10.5 0C16.2996 0 21 4.70039 21 10.5C21 15.1307 18.0018 19.06 13.8428 20.4586C14.2201 19.8516 14.4375 19.1379 14.4375 18.375V16.4514C15.4342 15.7336 16.2258 14.7451 16.7098 13.5967C16.9148 13.1127 16.4227 12.6738 15.9182 12.8297C14.2898 13.3301 12.4523 13.609 10.5123 13.609C8.57227 13.609 6.73477 13.3301 5.10645 12.8297C4.60195 12.6738 4.10977 13.1127 4.31484 13.5967C4.79473 14.7369 5.57812 15.7172 6.5625 16.435V18.375C6.5625 19.1379 6.77988 19.8516 7.15723 20.4586ZM8.00625 9.58125C8.22363 9.87246 8.63379 9.92988 8.925 9.7125C9.21621 9.49512 9.27363 9.08496 9.05625 8.79375C7.80938 7.13262 5.31562 7.13262 4.06875 8.79375C3.85137 9.08496 3.90879 9.49512 4.2 9.7125C4.49121 9.92988 4.90137 9.87246 5.11875 9.58125C5.84063 8.61738 7.28437 8.61738 8.00625 9.58125ZM13.7812 11.1562C14.4774 11.1562 15.1451 10.8797 15.6374 10.3874C16.1297 9.89512 16.4062 9.22744 16.4062 8.53125C16.4062 7.83506 16.1297 7.16738 15.6374 6.67509C15.1451 6.18281 14.4774 5.90625 13.7812 5.90625C13.0851 5.90625 12.4174 6.18281 11.9251 6.67509C11.4328 7.16738 11.1562 7.83506 11.1562 8.53125C11.1562 9.22744 11.4328 9.89512 11.9251 10.3874C12.4174 10.8797 13.0851 11.1562 13.7812 11.1562ZM13.125 16.5129V18.375C13.125 19.8229 11.9479 21 10.5 21C9.05215 21 7.875 19.8229 7.875 18.375V16.5129C7.875 15.91 8.36309 15.4219 8.96602 15.4219H9.04805C9.51152 15.4219 9.91348 15.7459 10.016 16.1971C10.1309 16.7139 10.8691 16.7139 10.984 16.1971C11.0865 15.7418 11.4885 15.4219 11.952 15.4219H12.034C12.6369 15.4219 13.125 15.91 13.125 16.5129ZM13.7812 7.54688C14.0423 7.54688 14.2927 7.65059 14.4773 7.83519C14.6619 8.0198 14.7656 8.27018 14.7656 8.53125C14.7656 8.79232 14.6619 9.0427 14.4773 9.22731C14.2927 9.41191 14.0423 9.51562 13.7812 9.51562C13.5202 9.51562 13.2698 9.41191 13.0852 9.22731C12.9006 9.0427 12.7969 8.79232 12.7969 8.53125C12.7969 8.27018 12.9006 8.0198 13.0852 7.83519C13.2698 7.65059 13.5202 7.54688 13.7812 7.54688Z" fill="white"/>
</g>
<defs>
<clipPath id="clip0_7_6">
<rect width="21" height="21" fill="white"/>
</clipPath>
</defs>
</svg>
